<?xml version="1.0" encoding="utf-8"?>
<svg viewBox="0 0 500 500" xmlns="http://www.w3.org/2000/svg">
  <g data-v-6805eed4="" fill="#a04732" class="pmspacesvg" transform="matrix(2.555058, 0, 0, 2.555058, 25.815931, 25.881519)" style="">
    <polyline data-gra="graph-name" stroke="#a04732" stroke-width="20" fill-opacity="0" stroke-opacity="0.5" points="0,66.79244232177734 0,0 175.4499969482422,0"/>
    <polyline data-gra="graph-name" stroke="#a04732" stroke-width="20" fill-opacity="0" stroke-opacity="0.5" points="0,66.79244232177734 175.4499969482422,66.79244232177734 175.4499969482422,0"/>
    <g mask="url(#174f8e72-d40d-44cc-9465-ae2b7f0e222a)">
      <g>
        <rect data-gra="graph-name-bg" stroke-width="2" class="i-icon-bg" x="0" y="0" width="175.4499969482422" height="66.79244232177734"/>
      </g>
      <g transform="translate(10,10)">
        <g data-gra="path-name" fill-rule="" class="tp-name" fill="#edeae2" opacity="1" transform="matrix(1,0,0,1,0,0)">
          <g transform="scale(1)">
            <g>
              <path d="M45.54-8.25L45.54 0 15.77 0Q14.63 0 13.31-0.27 12-0.54 10.71-1.11 9.43-1.68 8.25-2.59 7.08-3.49 6.17-4.78 5.27-6.06 4.73-7.76 4.19-9.46 4.19-11.58L4.19-11.58 4.19-33.93Q4.19-35.07 4.46-36.39 4.73-37.71 5.3-38.99 5.87-40.28 6.79-41.45 7.71-42.62 9-43.53 10.28-44.43 11.97-44.97 13.65-45.51 15.77-45.51L15.77-45.51 45.54-45.51 45.54-37.26 15.77-37.26Q14.16-37.26 13.3-36.4 12.44-35.55 12.44-33.86L12.44-33.86 12.44-11.58Q12.44-10 13.31-9.12 14.19-8.25 15.77-8.25L15.77-8.25 45.54-8.25ZM106.32-41.99L106.32 0 98.01 0 98.01-27.1 83.38-1.36Q82.84-0.38 81.87 0.13 80.9 0.63 79.79 0.63L79.79 0.63Q78.71 0.63 77.77 0.13 76.84-0.38 76.3-1.36L76.3-1.36 61.6-27.1 61.6 0 53.35 0 53.35-41.99Q53.35-43.42 54.19-44.53 55.03-45.64 56.4-46.02L56.4-46.02Q57.07-46.18 57.73-46.13 58.4-46.08 59.02-45.85 59.64-45.61 60.14-45.18 60.65-44.75 61-44.15L61-44.15 79.79-11.49 98.58-44.15Q99.31-45.35 100.59-45.86 101.88-46.37 103.28-46.02L103.28-46.02Q104.61-45.64 105.47-44.53 106.32-43.42 106.32-41.99L106.32-41.99ZM159.64-13.39L159.64-13.39Q159.64-10.95 159.02-9 158.41-7.05 157.39-5.55 156.37-4.06 155.01-3.02 153.65-1.97 152.19-1.3 150.73-0.63 149.22-0.32 147.71 0 146.38 0L146.38 0 114.54 0 114.54-8.25 146.38-8.25Q148.76-8.25 150.07-9.65 151.39-11.04 151.39-13.39L151.39-13.39Q151.39-14.54 151.04-15.49 150.69-16.44 150.04-17.14 149.39-17.84 148.46-18.22 147.52-18.6 146.38-18.6L146.38-18.6 127.4-18.6Q125.4-18.6 123.08-19.31 120.76-20.03 118.78-21.61 116.8-23.2 115.48-25.77 114.16-28.34 114.16-32.06L114.16-32.06Q114.16-35.77 115.48-38.32 116.8-40.88 118.78-42.48 120.76-44.08 123.08-44.8 125.4-45.51 127.4-45.51L127.4-45.51 155.49-45.51 155.49-37.26 127.4-37.26Q125.05-37.26 123.73-35.83 122.41-34.4 122.41-32.06L122.41-32.06Q122.41-29.68 123.73-28.29 125.05-26.91 127.4-26.91L127.4-26.91 146.38-26.91 146.44-26.91Q147.77-26.88 149.27-26.55 150.76-26.22 152.23-25.52 153.71-24.82 155.04-23.76 156.37-22.69 157.41-21.2 158.44-19.71 159.04-17.77 159.64-15.84 159.64-13.39Z" transform="translate(-4.190000057220459, 46.16244125366211)"/>
            </g>
          </g>
        </g>
      </g>
    </g>
  </g>
  <mask id="174f8e72-d40d-44cc-9465-ae2b7f0e222a">
    <g fill="white">
      <rect data-gra="graph-name-bg" stroke-width="2" class="i-icon-bg" x="0" y="0" width="175.4499969482422" height="66.79244232177734"/>
    </g>
    <g transform="translate(10,10)" fill="black">
      <g data-gra="path-name" fill-rule="" class="tp-name" opacity="1" transform="matrix(1,0,0,1,0,0)">
        <g transform="scale(1)">
          <g>
            <path d="M45.54-8.25L45.54 0 15.77 0Q14.63 0 13.31-0.27 12-0.54 10.71-1.11 9.43-1.68 8.25-2.59 7.08-3.49 6.17-4.78 5.27-6.06 4.73-7.76 4.19-9.46 4.19-11.58L4.19-11.58 4.19-33.93Q4.19-35.07 4.46-36.39 4.73-37.71 5.3-38.99 5.87-40.28 6.79-41.45 7.71-42.62 9-43.53 10.28-44.43 11.97-44.97 13.65-45.51 15.77-45.51L15.77-45.51 45.54-45.51 45.54-37.26 15.77-37.26Q14.16-37.26 13.3-36.4 12.44-35.55 12.44-33.86L12.44-33.86 12.44-11.58Q12.44-10 13.31-9.12 14.19-8.25 15.77-8.25L15.77-8.25 45.54-8.25ZM106.32-41.99L106.32 0 98.01 0 98.01-27.1 83.38-1.36Q82.84-0.38 81.87 0.13 80.9 0.63 79.79 0.63L79.79 0.63Q78.71 0.63 77.77 0.13 76.84-0.38 76.3-1.36L76.3-1.36 61.6-27.1 61.6 0 53.35 0 53.35-41.99Q53.35-43.42 54.19-44.53 55.03-45.64 56.4-46.02L56.4-46.02Q57.07-46.18 57.73-46.13 58.4-46.08 59.02-45.85 59.64-45.61 60.14-45.18 60.65-44.75 61-44.15L61-44.15 79.79-11.49 98.58-44.15Q99.31-45.35 100.59-45.86 101.88-46.37 103.28-46.02L103.28-46.02Q104.61-45.64 105.47-44.53 106.32-43.42 106.32-41.99L106.32-41.99ZM159.64-13.39L159.64-13.39Q159.64-10.95 159.02-9 158.41-7.05 157.39-5.55 156.37-4.06 155.01-3.02 153.65-1.97 152.19-1.3 150.73-0.63 149.22-0.32 147.71 0 146.38 0L146.38 0 114.54 0 114.54-8.25 146.38-8.25Q148.76-8.25 150.07-9.65 151.39-11.04 151.39-13.39L151.39-13.39Q151.39-14.54 151.04-15.49 150.69-16.44 150.04-17.14 149.39-17.84 148.46-18.22 147.52-18.6 146.38-18.6L146.38-18.6 127.4-18.6Q125.4-18.6 123.08-19.31 120.76-20.03 118.78-21.61 116.8-23.2 115.48-25.77 114.16-28.34 114.16-32.06L114.16-32.06Q114.16-35.77 115.48-38.32 116.8-40.88 118.78-42.48 120.76-44.08 123.08-44.8 125.4-45.51 127.4-45.51L127.4-45.51 155.49-45.51 155.49-37.26 127.4-37.26Q125.05-37.26 123.73-35.83 122.41-34.4 122.41-32.06L122.41-32.06Q122.41-29.68 123.73-28.29 125.05-26.91 127.4-26.91L127.4-26.91 146.38-26.91 146.44-26.91Q147.77-26.88 149.27-26.55 150.76-26.22 152.23-25.52 153.71-24.82 155.04-23.76 156.37-22.69 157.41-21.2 158.44-19.71 159.04-17.77 159.64-15.84 159.64-13.39Z" transform="translate(-4.190000057220459, 46.16244125366211)"/>
          </g>
        </g>
      </g>
    </g>
  </mask>
</svg>