<svg width="1380" height="946" viewBox="0 0 1380 946" fill="none" xmlns="http://www.w3.org/2000/svg">
<g opacity="0.27">
<g clip-path="url(#clip0)">
<path d="M116.104 986.859L128.243 951.042C140.71 915.454 164.376 843.647 211.055 787.271C256.98 731.27 324.978 690.299 383.802 643.77C443.562 596.608 493.756 542.708 522.33 474.875C550.839 406.09 558.093 322.852 578.038 247.647C597.616 172.96 631.216 107.89 677.322 51.1111C722.88 -4.88953 782.824 -51.7927 823.988 -110.759C866.191 -170.157 889.675 -241.706 902.568 -277.898L914.525 -313.456L1149.98 -147.616L1129.1 -117.96C1108.21 -88.3041 1066.56 -29.165 1024.54 30.4929C982.946 89.5456 941.11 148.944 899.7 207.737C857.682 267.395 815.663 327.053 774.254 385.847C732.418 445.245 690.826 504.298 648.807 563.956C607.154 623.095 565.379 682.407 523.361 742.065C481.89 800.945 439.933 860.516 398.523 919.31C356.566 978.881 315.095 1037.76 293.781 1068.02L273.077 1097.42L116.104 986.859Z" fill="url(#paint0_linear)" fill-opacity="0.2"/>
</g>
<g clip-path="url(#clip1)">
<path d="M238.11 1174.22L246.646 1136.58C255.567 1099.09 271.953 1023.81 315.26 957.607C357.799 891.957 426.188 835.233 483.922 775.466C542.588 714.849 590.023 650.148 612.238 577.463C634.261 503.877 631.394 421.713 643.31 344.094C654.897 267.068 682.913 195.78 725.548 129.333C767.689 63.7763 826.588 3.36366 863.587 -63.9451C901.655 -131.934 917.878 -206.917 927.182 -245.104L935.553 -282.441L1212.02 -181.893L1193.21 -147.995C1174.41 -114.096 1136.9 -46.4969 1099.06 21.6955C1061.61 89.1959 1023.94 157.092 986.656 224.296C948.822 292.488 910.987 360.68 873.7 427.884C836.029 495.78 798.578 563.28 760.743 631.473C723.237 699.072 685.622 766.869 647.787 835.061C610.445 902.364 572.665 970.458 535.379 1037.66C497.598 1105.75 460.257 1173.06 441.065 1207.65L422.422 1241.25L238.11 1174.22Z" fill="url(#paint1_linear)" fill-opacity="0.2"/>
</g>
<g clip-path="url(#clip2)">
<path d="M259.969 1192.78L273.471 1154.65C287.303 1116.74 313.682 1040.33 363.324 978.977C412.179 918.058 483.343 871.828 545.214 820.216C608.068 767.894 661.26 708.971 692.581 636.485C723.861 563.005 733.66 475.399 756.301 395.601C778.551 316.365 814.969 246.533 864.033 184.789C912.51 123.888 975.546 71.8286 1019.58 8.03041C1064.7 -56.2715 1090.88 -132.406 1105.17 -170.967L1118.48 -208.819L1356.29 -46.3334L1333.95 -14.2382C1311.61 17.857 1267.07 81.8602 1222.13 146.425C1177.65 210.335 1132.91 274.619 1088.63 338.247C1043.69 402.812 998.759 467.377 954.475 531.006C909.735 595.29 865.255 659.199 820.32 723.764C775.775 787.767 731.101 851.958 686.165 916.522C641.816 980.245 596.946 1044.72 552.662 1108.35C507.792 1172.82 463.443 1236.54 440.649 1269.29L418.507 1301.1L259.969 1192.78Z" fill="url(#paint2_linear)" fill-opacity="0.2"/>
</g>
</g>
<defs>
<linearGradient id="paint0_linear" x1="476.071" y1="309.062" x2="711.531" y2="474.901" gradientUnits="userSpaceOnUse">
<stop stop-color="#37A596"/>
<stop offset="1" stop-color="#37A596" stop-opacity="0"/>
</linearGradient>
<linearGradient id="paint1_linear" x1="540.754" y1="429.13" x2="794.803" y2="570.084" gradientUnits="userSpaceOnUse">
<stop stop-color="#37A596"/>
<stop offset="1" stop-color="#37A596" stop-opacity="0"/>
</linearGradient>
<linearGradient id="paint2_linear" x1="649.589" y1="464.9" x2="885.98" y2="629.421" gradientUnits="userSpaceOnUse">
<stop stop-color="#37A596"/>
<stop offset="1" stop-color="#37A596" stop-opacity="0"/>
</linearGradient>
<clipPath id="clip0">
<rect width="1522.85" height="320" fill="white" transform="translate(11.4551 913.153) rotate(-54.8421)"/>
</clipPath>
<clipPath id="clip1">
<rect width="1627.51" height="326.872" fill="white" transform="matrix(0.485157 -0.874427 0.939778 0.341786 115.235 1129.53)"/>
</clipPath>
<clipPath id="clip2">
<rect width="1641.65" height="320.02" fill="white" transform="matrix(0.571242 -0.820782 0.825672 0.56415 155.062 1119.18)"/>
</clipPath>
</defs>
</svg>
